<svg width="150" height="29" viewBox="0 0 150 29" fill="none" xmlns="http://www.w3.org/2000/svg">
<path d="M35.2642 21.7443H45.0937V19.2088H38.3394V15.7358H44.561V13.2003H38.3394V9.73438H45.0653V7.19886H35.2642V21.7443Z" fill="#FBFBFB"/>
<path d="M47.4534 21.7443H50.479V18.2784L51.2958 17.348L54.2716 21.7443H57.8157L53.5614 15.5582L57.6097 10.8352H54.1367L50.6424 14.9759H50.479V7.19886H47.4534V21.7443Z" fill="#FBFBFB"/>
<path d="M62.1196 15.4375C62.1267 14.0313 62.9861 13.2074 64.2219 13.2074C65.4506 13.2074 66.175 13.9957 66.1679 15.3381V21.7443H69.1935V14.7983C69.2006 12.2415 67.6949 10.6932 65.4222 10.6932C63.7674 10.6932 62.6594 11.4744 62.1622 12.7599H62.0344V7.19886H59.0941V21.7443H62.1196V15.4375Z" fill="#FBFBFB"/>
<path d="M80.6512 13.946C80.3813 11.9361 78.762 10.6932 76.0063 10.6932C73.2152 10.6932 71.3757 11.9858 71.3828 14.0881C71.3757 15.7216 72.4055 16.7798 74.5362 17.206L76.4254 17.5824C77.3771 17.7741 77.8103 18.1222 77.8245 18.669C77.8103 19.3153 77.1072 19.777 76.049 19.777C74.9694 19.777 74.2521 19.3153 74.0674 18.4276L71.0916 18.5838C71.3757 20.6719 73.1512 21.9574 76.0419 21.9574C78.8686 21.9574 80.8927 20.5156 80.8998 18.3636C80.8927 16.7869 79.8629 15.8423 77.7464 15.4091L75.772 15.0114C74.7563 14.7912 74.3799 14.4432 74.387 13.9176C74.3799 13.2642 75.1186 12.8381 76.0561 12.8381C77.1072 12.8381 77.7322 13.4134 77.8813 14.1165L80.6512 13.946Z" fill="#FBFBFB"/>
<path d="M85.9158 21.9503C87.528 21.9503 88.572 21.2472 89.1047 20.2315H89.1899V21.7443H92.0593V14.3864C92.0593 11.7869 89.8576 10.6932 87.4286 10.6932C84.8149 10.6932 83.0962 11.9432 82.6772 13.9318L85.4755 14.1591C85.6814 13.4347 86.3277 12.902 87.4144 12.902C88.4442 12.902 89.0337 13.4205 89.0337 14.3153V14.358C89.0337 15.0611 88.288 15.1534 86.3916 15.3381C84.2326 15.5369 82.2936 16.2614 82.2936 18.6974C82.2936 20.8565 83.8348 21.9503 85.9158 21.9503ZM86.7823 19.8622C85.8519 19.8622 85.1843 19.429 85.1843 18.598C85.1843 17.7457 85.8874 17.3267 86.9527 17.1776C87.6132 17.0852 88.6928 16.929 89.055 16.6875V17.8452C89.055 18.9886 88.1104 19.8622 86.7823 19.8622Z" fill="#FBFBFB"/>
<path d="M97.4321 15.4375C97.4392 14.0313 98.2773 13.2074 99.4989 13.2074C100.713 13.2074 101.445 14.0028 101.438 15.3381V21.7443H104.463V14.7983C104.463 12.2557 102.972 10.6932 100.699 10.6932C99.0799 10.6932 97.908 11.4886 97.4179 12.7599H97.2901V10.8352H94.4066V21.7443H97.4321V15.4375Z" fill="#FBFBFB"/>
<path d="M109.874 15.4375C109.881 14.0313 110.719 13.2074 111.94 13.2074C113.155 13.2074 113.886 14.0028 113.879 15.3381V21.7443H116.905V14.7983C116.905 12.2557 115.413 10.6932 113.141 10.6932C111.521 10.6932 110.349 11.4886 109.859 12.7599H109.731V10.8352H106.848V21.7443H109.874V15.4375Z" fill="#FBFBFB"/>
<path d="M119.261 21.7443H129.63V19.2301H123.522V19.1307L125.646 17.0497C128.636 14.3224 129.439 12.9588 129.439 11.304C129.439 8.78267 127.379 7 124.261 7C121.207 7 119.112 8.82528 119.119 11.6804H122.038C122.031 10.2884 122.912 9.43608 124.24 9.43608C125.518 9.43608 126.47 10.2315 126.47 11.5099C126.47 12.6676 125.76 13.4631 124.439 14.7344L119.261 19.5284V21.7443Z" fill="#FBFBFB"/>
<path d="M137.235 21.9432C140.502 21.9432 142.839 20.1463 142.832 17.6605C142.839 15.8494 141.688 14.5568 139.55 14.2869V14.1733C141.177 13.8821 142.299 12.7315 142.292 11.098C142.299 8.80398 140.289 7 137.278 7C134.295 7 132.05 8.74716 132.008 11.2614H134.955C134.991 10.1534 136.006 9.43608 137.263 9.43608C138.506 9.43608 139.337 10.1889 139.33 11.2827C139.337 12.4261 138.364 13.2003 136.965 13.2003H135.609V15.4588H136.965C138.613 15.4588 139.643 16.2827 139.636 17.4545C139.643 18.6122 138.648 19.4077 137.242 19.4077C135.886 19.4077 134.87 18.6974 134.813 17.6321H131.717C131.766 20.1747 134.039 21.9432 137.235 21.9432Z" fill="#FBFBFB"/>
<path d="M9.68049 3H11.447H24.5038C25.2207 3.02599 25.8095 3.29887 26.2704 3.81864C26.7568 4.33842 27 4.96215 27 5.68983C26.872 7.24915 26.0399 8.09379 24.5038 8.22373H10.9862C10.0133 8.27571 9.20686 8.65254 8.56682 9.35424C7.92678 10.0559 7.45315 10.8616 7.14593 11.7712C6.86431 12.6548 6.7235 13.5644 6.7235 14.5C6.7235 15.4356 6.86431 16.3582 7.14593 17.2678C7.45315 18.1514 7.92678 18.9441 8.56682 19.6458C9.20686 20.3475 10.0133 20.7243 10.9862 20.7763H24.5038C25.2207 20.8023 25.8095 21.0751 26.2704 21.5949C26.7568 22.1147 27 22.7384 27 23.4661C26.9744 24.1678 26.7184 24.7655 26.2319 25.2593C25.7711 25.7271 25.1951 25.974 24.5038 26H10.4101H9.68049C7.88838 25.896 6.40348 25.2073 5.22581 23.9339C4.07373 22.6345 3.24168 21.1661 2.72965 19.5288C2.24322 17.8915 2 16.2153 2 14.5C2 12.7847 2.25602 11.1085 2.76805 9.47119C3.28008 7.8339 4.11214 6.37853 5.26421 5.10508C6.41628 3.80565 7.88838 3.10395 9.68049 3ZM26.9232 14.3441C26.9232 15.0718 26.6672 15.6825 26.1551 16.1763C25.6687 16.696 25.0671 16.9559 24.3502 16.9559H12.7527C12.0358 16.9559 11.4214 16.709 10.9094 16.2153C10.4229 15.6955 10.1797 15.0718 10.1797 14.3441C10.1797 13.6164 10.4229 12.9927 10.9094 12.4729C11.4214 11.9791 12.0358 11.7322 12.7527 11.7322H24.3502C25.0671 11.7322 25.6687 11.9921 26.1551 12.5119C26.6672 13.0056 26.9232 13.6164 26.9232 14.3441Z" fill="white"/>
</svg>
